<?xml version="1.0" standalone="no"?><!DOCTYPE svg PUBLIC "-//W3C//DTD SVG 1.1//EN" "http://www.w3.org/Graphics/SVG/1.1/DTD/svg11.dtd"><svg t="1714144041996" class="icon" viewBox="0 0 1024 1024" version="1.1" xmlns="http://www.w3.org/2000/svg" p-id="23462" xmlns:xlink="http://www.w3.org/1999/xlink" width="80" height="80"><path d="M993.890325 310.726658c7.591181 0 14.457362 2.644119 20.555895 7.975005A24.86325 24.86325 0 0 1 1023.572696 338.19138v418.06937c0 19.788247-10.661771 36.548551-31.985314 50.280913v2.260295l-399.816417 210.20748v2.260296a31.814725 31.814725 0 0 1-13.689714 2.302942 30.407371 30.407371 0 0 1-20.598542-8.017652 24.86325 24.86325 0 0 1-9.126476-19.404423v-422.632608c0-21.323542 9.894124-38.083847 29.725018-50.32356l6.823533-4.520591 392.992884-203.341299 4.563238-2.302942a25.417662 25.417662 0 0 1 11.429419-2.260296z m-29.725018-111.948597c12.197066 4.563238 18.295599 11.429419 18.295599 20.555895a24.564721 24.564721 0 0 1-4.563238 13.689714 25.844133 25.844133 0 0 1-9.169123 9.169123l-4.563238 2.260296-418.06937 221.636898-4.605885 2.260295c-9.126476 4.563238-19.0206 6.823534-29.682371 6.823534-10.661771 0-20.555895-2.260295-29.682371-6.823534l-4.605885-2.260295-418.06937-219.333956c-12.197066-7.633828-18.295599-16.760304-18.295599-27.422075 0-4.563238 1.535295-8.401476 4.563238-11.429419a35.823551 35.823551 0 0 1 9.169123-6.823533l4.563238-2.302943L472.956187 11.429419C489.716491 3.795591 502.681205 0 511.807681 0l38.808847 11.429419 413.548779 187.348642z m-518.588548 324.416372c19.788247 12.197066 29.682371 28.914723 29.682371 50.238266v422.675255c0 7.633828-3.07059 14.073538-9.126476 19.44707a30.407371 30.407371 0 0 1-20.598542 7.975005c-3.027943 0-7.591181-1.535295-13.689714-4.563238L32.02798 808.759311v-2.260295c-21.323542-13.732361-31.985313-30.492665-31.985313-50.280913V338.19138c0-7.633828 3.027943-14.073538 9.126476-19.44707a30.407371 30.407371 0 0 1 20.555895-7.975005c6.098533 0 9.936771 0.767648 11.429418 2.260296l4.563238 2.302942 390.689942 203.341299 9.126476 4.563238z" fill="#0FC161" p-id="23463"></path></svg>